# xmcd
#
# Track frame offsets:
#	150
#	12455
#	24510
#	35725
#	49425
#	63355
#	76250
#	88202
#	101100
#	115110
#	127837
#	140872
#	154150
#	165630
#	176990
#	192327
#
# Disc length: 2731 seconds
#
# Revision: 3
# Processed by: cddbd v1.5.2PL0 Copyright (c) Steve Scherf et al.
# Submitted via: EasyCDDAExtractor 11.5.3.1
#
DISCID=e30aa910
DTITLE=Bill Monroe - RCA Country Legends [Bill Monroe]
DYEAR=2002
DGENRE=Bluegrass
TTITLE0=Mule Skinner Blues
TTITLE1=No Letter In The Mail
TTITLE2=Cryin' Holy Unto My Lord
TTITLE3=Six White Horses
TTITLE4=Dog House Blues
TTITLE5=I Wonder If You Feel The Way I Do
TTITLE6=Katy Hill
TTITLE7=Tennessee Blues
TTITLE8=Shake My Mother's Hand For Me
TTITLE9=Where You There?
TTITLE10=Blue Yodel No. 7 (Anniversary Blue Yodel)
TTITLE11=The Coupon Song
TTITLE12=Orange Blossom Special
TTITLE13=Honky Tonk Swing
TTITLE14=In The Pines
TTITLE15=Back Up And Push
EXTD=ID3G: 254
EXTT0=
EXTT1=
EXTT2=
EXTT3=
EXTT4=
EXTT5=
EXTT6=
EXTT7=
EXTT8=
EXTT9=
EXTT10=
EXTT11=
EXTT12=
EXTT13=
EXTT14=
EXTT15=
PLAYORDER=
